<svg width="133" height="43" viewBox="0 0 133 43" fill="" xmlns="http://www.w3.org/2000/svg">
<g clip-path="url(#clip0_2_2)">
<path d="M10.0918 1.66735C8.16122 2.5449 5.70408 4.21225 4.65102 5.35306C0.702041 9.74082 0 13.0755 0 28.5204V43H14.4796C29.9245 43 33.2592 42.298 37.6469 38.349C42.1224 34.2245 43 30.6265 43 14.6551V1.51992e-06H28.3449C15.8837 1.51992e-06 13.0755 0.263267 10.0918 1.66735ZM37.7347 5.17755C37.7347 6.75714 34.1367 10.3551 31.2408 11.7592C29.398 12.6367 25.9755 13.1633 22.2898 13.1633C14.0408 13.1633 13.1633 14.1286 13.1633 22.9918V29.8367H19.9204C28.4327 29.8367 29.8367 28.7837 29.8367 22.2898C29.8367 17.7265 29.8367 17.6388 33.8735 15.4449C36.1551 14.2163 38.1735 13.1633 38.349 13.1633C38.6122 13.1633 38.7 17.0245 38.4367 21.851C38.1735 29.6612 37.9102 30.802 35.7163 33.6102C32.4694 37.8224 28.8714 38.7 15.6204 38.4367L4.82653 38.1735V25.449C4.82653 14.3041 5.00204 12.4612 6.58163 10.1796C9.56531 5.70408 13.9531 4.38776 26.5898 4.38776C32.7327 4.38776 37.7347 4.73878 37.7347 5.17755Z" fill="#FF8503"/>
</g>
<defs>
<clipPath id="clip0_2_2">
<rect width="143" height="43" fill=""/>
</clipPath>
</defs>
</svg>
