<svg xmlns="http://www.w3.org/2000/svg" xmlns:xlink="http://www.w3.org/1999/xlink" width="500" zoomAndPan="magnify" viewBox="0 0 375 374.999991" height="500" preserveAspectRatio="xMidYMid meet" version="1.0"><defs><clipPath id="44ef241752"><path d="M 2 9.394531 L 372 9.394531 L 372 365.644531 L 2 365.644531 Z M 2 9.394531 " clip-rule="nonzero"/></clipPath><clipPath id="66056c274c"><path d="M 131 87 L 261 87 L 261 217 L 131 217 Z M 131 87 " clip-rule="nonzero"/></clipPath><clipPath id="89c104ec01"><path d="M 103.933594 120.617188 L 213.277344 59.53125 L 271.070312 162.984375 L 161.726562 224.070312 Z M 103.933594 120.617188 " clip-rule="nonzero"/></clipPath><clipPath id="cd046a3625"><path d="M 103.933594 120.617188 L 213.277344 59.53125 L 271.070312 162.984375 L 161.726562 224.070312 Z M 103.933594 120.617188 " clip-rule="nonzero"/></clipPath><clipPath id="c188b5cd68"><path d="M 103.933594 120.617188 L 213.277344 59.53125 L 271.070312 162.984375 L 161.726562 224.070312 Z M 103.933594 120.617188 " clip-rule="nonzero"/></clipPath><clipPath id="950d52b1b5"><path d="M 132 82 L 262 82 L 262 212 L 132 212 Z M 132 82 " clip-rule="nonzero"/></clipPath><clipPath id="3644e197a1"><path d="M 103.933594 120.617188 L 213.277344 59.53125 L 271.070312 162.984375 L 161.726562 224.070312 Z M 103.933594 120.617188 " clip-rule="nonzero"/></clipPath><clipPath id="37027e6acc"><path d="M 103.933594 120.617188 L 213.277344 59.53125 L 271.070312 162.984375 L 161.726562 224.070312 Z M 103.933594 120.617188 " clip-rule="nonzero"/></clipPath><clipPath id="20783c979b"><path d="M 103.933594 120.617188 L 213.277344 59.53125 L 271.070312 162.984375 L 161.726562 224.070312 Z M 103.933594 120.617188 " clip-rule="nonzero"/></clipPath><clipPath id="25f1400dc4"><path d="M 183 139 L 200 139 L 200 152 L 183 152 Z M 183 139 " clip-rule="nonzero"/></clipPath><clipPath id="474a1ffa75"><path d="M 103.933594 120.617188 L 213.277344 59.53125 L 271.070312 162.984375 L 161.726562 224.070312 Z M 103.933594 120.617188 " clip-rule="nonzero"/></clipPath><clipPath id="d518d69045"><path d="M 103.933594 120.617188 L 213.277344 59.53125 L 271.070312 162.984375 L 161.726562 224.070312 Z M 103.933594 120.617188 " clip-rule="nonzero"/></clipPath><clipPath id="8195dbc4f7"><path d="M 103.933594 120.617188 L 213.277344 59.53125 L 271.070312 162.984375 L 161.726562 224.070312 Z M 103.933594 120.617188 " clip-rule="nonzero"/></clipPath><clipPath id="36f3610c53"><path d="M 147 122 L 259 122 L 259 209 L 147 209 Z M 147 122 " clip-rule="nonzero"/></clipPath><clipPath id="0f8718d68b"><path d="M 103.933594 120.617188 L 213.277344 59.53125 L 271.070312 162.984375 L 161.726562 224.070312 Z M 103.933594 120.617188 " clip-rule="nonzero"/></clipPath><clipPath id="4b95eb570f"><path d="M 103.933594 120.617188 L 213.277344 59.53125 L 271.070312 162.984375 L 161.726562 224.070312 Z M 103.933594 120.617188 " clip-rule="nonzero"/></clipPath><clipPath id="91a0db7de8"><path d="M 103.933594 120.617188 L 213.277344 59.53125 L 271.070312 162.984375 L 161.726562 224.070312 Z M 103.933594 120.617188 " clip-rule="nonzero"/></clipPath><clipPath id="765bbb25dc"><path d="M 167 136 L 247 136 L 247 192 L 167 192 Z M 167 136 " clip-rule="nonzero"/></clipPath><clipPath id="928b86ff71"><path d="M 103.933594 120.617188 L 213.277344 59.53125 L 271.070312 162.984375 L 161.726562 224.070312 Z M 103.933594 120.617188 " clip-rule="nonzero"/></clipPath><clipPath id="432fc4b391"><path d="M 103.933594 120.617188 L 213.277344 59.53125 L 271.070312 162.984375 L 161.726562 224.070312 Z M 103.933594 120.617188 " clip-rule="nonzero"/></clipPath><clipPath id="48c85b2a04"><path d="M 103.933594 120.617188 L 213.277344 59.53125 L 271.070312 162.984375 L 161.726562 224.070312 Z M 103.933594 120.617188 " clip-rule="nonzero"/></clipPath><clipPath id="2bbfddbf86"><path d="M 132 82 L 262 82 L 262 212 L 132 212 Z M 132 82 " clip-rule="nonzero"/></clipPath><clipPath id="1784af0c38"><path d="M 103.933594 120.617188 L 213.277344 59.53125 L 271.070312 162.984375 L 161.726562 224.070312 Z M 103.933594 120.617188 " clip-rule="nonzero"/></clipPath><clipPath id="17ed5a98b2"><path d="M 103.933594 120.617188 L 213.277344 59.53125 L 271.070312 162.984375 L 161.726562 224.070312 Z M 103.933594 120.617188 " clip-rule="nonzero"/></clipPath><clipPath id="a50d2a0e98"><path d="M 103.933594 120.617188 L 213.277344 59.53125 L 271.070312 162.984375 L 161.726562 224.070312 Z M 103.933594 120.617188 " clip-rule="nonzero"/></clipPath><clipPath id="c7262e38ec"><path d="M 147 144 L 253 144 L 253 209 L 147 209 Z M 147 144 " clip-rule="nonzero"/></clipPath><clipPath id="7b776b1d6b"><path d="M 103.933594 120.617188 L 213.277344 59.53125 L 271.070312 162.984375 L 161.726562 224.070312 Z M 103.933594 120.617188 " clip-rule="nonzero"/></clipPath><clipPath id="09abf3d430"><path d="M 103.933594 120.617188 L 213.277344 59.53125 L 271.070312 162.984375 L 161.726562 224.070312 Z M 103.933594 120.617188 " clip-rule="nonzero"/></clipPath><clipPath id="85648dd645"><path d="M 103.933594 120.617188 L 213.277344 59.53125 L 271.070312 162.984375 L 161.726562 224.070312 Z M 103.933594 120.617188 " clip-rule="nonzero"/></clipPath><clipPath id="512856386a"><path d="M 154 122 L 259 122 L 259 194 L 154 194 Z M 154 122 " clip-rule="nonzero"/></clipPath><clipPath id="481bd3a7f2"><path d="M 103.933594 120.617188 L 213.277344 59.53125 L 271.070312 162.984375 L 161.726562 224.070312 Z M 103.933594 120.617188 " clip-rule="nonzero"/></clipPath><clipPath id="1acbf61d5a"><path d="M 103.933594 120.617188 L 213.277344 59.53125 L 271.070312 162.984375 L 161.726562 224.070312 Z M 103.933594 120.617188 " clip-rule="nonzero"/></clipPath><clipPath id="7fb5fe92af"><path d="M 103.933594 120.617188 L 213.277344 59.53125 L 271.070312 162.984375 L 161.726562 224.070312 Z M 103.933594 120.617188 " clip-rule="nonzero"/></clipPath><clipPath id="b745f965b3"><path d="M 183 139 L 200 139 L 200 149 L 183 149 Z M 183 139 " clip-rule="nonzero"/></clipPath><clipPath id="79509ce52e"><path d="M 103.933594 120.617188 L 213.277344 59.53125 L 271.070312 162.984375 L 161.726562 224.070312 Z M 103.933594 120.617188 " clip-rule="nonzero"/></clipPath><clipPath id="15022e978c"><path d="M 103.933594 120.617188 L 213.277344 59.53125 L 271.070312 162.984375 L 161.726562 224.070312 Z M 103.933594 120.617188 " clip-rule="nonzero"/></clipPath><clipPath id="642143e918"><path d="M 103.933594 120.617188 L 213.277344 59.53125 L 271.070312 162.984375 L 161.726562 224.070312 Z M 103.933594 120.617188 " clip-rule="nonzero"/></clipPath><clipPath id="52a5fe83d7"><path d="M 179 136 L 247 136 L 247 183 L 179 183 Z M 179 136 " clip-rule="nonzero"/></clipPath><clipPath id="67c2c00762"><path d="M 103.933594 120.617188 L 213.277344 59.53125 L 271.070312 162.984375 L 161.726562 224.070312 Z M 103.933594 120.617188 " clip-rule="nonzero"/></clipPath><clipPath id="8050d1a716"><path d="M 103.933594 120.617188 L 213.277344 59.53125 L 271.070312 162.984375 L 161.726562 224.070312 Z M 103.933594 120.617188 " clip-rule="nonzero"/></clipPath><clipPath id="a86cf7ac31"><path d="M 103.933594 120.617188 L 213.277344 59.53125 L 271.070312 162.984375 L 161.726562 224.070312 Z M 103.933594 120.617188 " clip-rule="nonzero"/></clipPath></defs><path fill="#ffffff" d="M 361.289062 274.652344 C 308.585938 297.625 248.832031 322.550781 194.554688 344.246094 C 186.746094 347.324219 179.164062 350.925781 171.058594 353.179688 C 168.953125 353.777344 166.628906 354.230469 164.75 353.179688 C 163.175781 352.277344 162.273438 350.625 161.597656 348.972656 C 152.816406 329.304688 154.015625 305.433594 164.675781 286.738281 L 167.828125 285.539062 C 230.363281 262.042969 277.359375 242.523438 345.746094 215.121094 C 332.910156 252.132812 345.671875 257.988281 361.289062 274.652344 Z M 361.289062 274.652344 " fill-opacity="1" fill-rule="nonzero"/><g clip-path="url(#44ef241752)"><path fill="#f7ba20" d="M 332.460938 265.570312 C 290.796875 283.738281 248.753906 300.855469 206.566406 317.445312 C 206.191406 313.765625 205.890625 310.164062 205.589844 306.710938 C 221.054688 300.628906 236.519531 294.472656 251.984375 288.316406 C 264.671875 283.285156 277.207031 277.957031 289.820312 272.703125 C 302.132812 267.597656 315.496094 263.46875 327.054688 256.863281 C 328.78125 255.886719 327.65625 253.183594 325.703125 253.707031 C 312.714844 257.160156 300.105469 263.769531 287.71875 268.875 C 275.257812 274.054688 262.71875 279.082031 250.257812 284.339844 C 235.242188 290.71875 220.304688 297.175781 205.289062 303.632812 C 204.988281 299.878906 204.765625 296.425781 204.6875 293.421875 C 220.980469 286.964844 237.121094 280.132812 253.261719 273.453125 C 265.273438 268.496094 277.207031 263.316406 289.144531 258.136719 C 301.679688 252.65625 314.59375 247.777344 326.90625 241.699219 C 327.804688 241.246094 327.207031 239.746094 326.230469 240.046875 C 313.46875 244.023438 300.929688 249.128906 288.542969 254.160156 C 274.28125 260.015625 261.59375 265.417969 248.90625 270.75 C 224.207031 281.109375 200.558594 289.59375 176.613281 301.453125 C 175.335938 302.054688 176.238281 304.308594 177.589844 303.78125 C 179.613281 303.03125 181.640625 302.28125 183.667969 301.527344 C 183.96875 305.207031 184.269531 308.886719 184.644531 312.566406 C 181.191406 314.066406 177.738281 315.566406 174.285156 317.070312 C 173.308594 317.445312 173.984375 319.097656 174.960938 318.71875 C 178.265625 317.445312 181.566406 316.09375 184.871094 314.816406 C 185.246094 318.34375 185.621094 321.875 186.070312 325.476562 C 183.519531 326.453125 180.964844 327.503906 178.414062 328.480469 C 176.761719 329.082031 177.4375 331.707031 179.164062 331.105469 C 181.640625 330.207031 184.042969 329.378906 186.523438 328.480469 C 186.597656 329.082031 186.671875 329.679688 186.746094 330.355469 C 187.046875 329.605469 187.421875 328.855469 187.722656 328.03125 C 193.503906 325.925781 199.207031 323.824219 204.914062 321.722656 C 205.664062 322.550781 206.414062 323.375 207.242188 324.277344 C 207.167969 323.148438 207.015625 322.023438 206.941406 320.972656 C 249.957031 304.90625 292.449219 287.339844 334.414062 268.648438 C 336.4375 267.820312 334.5625 264.667969 332.460938 265.570312 Z M 189.449219 324.125 C 191.777344 319.320312 194.179688 314.890625 195.378906 312.566406 C 197.183594 314.214844 199.285156 316.019531 202.285156 319.097656 C 198.007812 320.824219 193.730469 322.472656 189.449219 324.125 Z M 367.144531 267.671875 C 364.214844 267.148438 361.363281 267.671875 358.585938 268.574219 C 356.40625 267.222656 354.304688 265.71875 352.355469 263.691406 C 348.300781 259.339844 344.996094 253.933594 343.496094 248.152344 C 340.945312 238.46875 342.746094 228.335938 346.574219 219.175781 C 347.175781 218.875 347.773438 218.652344 348.375 218.425781 C 354.082031 215.949219 364.589844 212.792969 359.9375 204.6875 C 355.65625 197.253906 350.101562 190.273438 345.148438 183.21875 C 324.203125 153.488281 302.957031 124.0625 281.636719 94.632812 C 262.417969 68.207031 243.800781 41.183594 223.15625 15.882812 C 221.878906 14.304688 220.453125 12.503906 219.101562 10.851562 C 218.277344 9.800781 216.476562 9.5 215.199219 9.800781 C 174.433594 21.738281 133.972656 34.875 94.109375 49.515625 C 78.34375 55.296875 62.503906 61.226562 47.1875 68.132812 C 42.609375 70.160156 38.03125 72.335938 33.675781 74.964844 C 29.847656 77.214844 25.417969 77.816406 21.589844 79.992188 C 17.085938 82.546875 14.382812 87.351562 12.132812 91.855469 C 2.222656 111.898438 1.246094 134.046875 3.421875 155.890625 C 3.496094 156.417969 3.722656 156.867188 4.097656 157.09375 C 4.171875 157.242188 4.171875 157.316406 4.25 157.46875 C 15.882812 180.4375 31.648438 201.308594 46.738281 222.027344 C 72.039062 256.785156 98.011719 291.019531 123.6875 325.550781 C 129.917969 333.960938 136.148438 342.292969 142.679688 350.476562 C 144.933594 353.328125 146.960938 356.40625 149.285156 359.183594 C 150.488281 360.609375 151.6875 361.960938 153.113281 363.164062 C 154.316406 364.214844 155.742188 365.414062 157.320312 365.414062 C 159.347656 365.488281 161.296875 364.589844 163.175781 363.988281 C 173.460938 360.535156 183.667969 356.554688 193.804688 352.726562 C 199.058594 350.699219 204.3125 348.675781 209.570312 346.648438 C 220.003906 342.59375 230.4375 338.464844 240.796875 334.261719 C 251.15625 330.054688 261.519531 325.777344 271.878906 321.5 C 282.238281 317.144531 292.523438 312.789062 302.808594 308.359375 C 313.015625 303.929688 323.226562 299.503906 333.4375 294.996094 C 339.21875 292.445312 344.996094 289.894531 350.703125 287.191406 C 353.855469 285.6875 356.933594 284.261719 360.011719 282.6875 C 363.164062 281.035156 367.59375 279.457031 370.222656 276.980469 C 373.75 273.453125 371.574219 268.496094 367.144531 267.671875 Z M 350.175781 272.25 C 321.125 285.238281 291.695312 297.625 262.492188 310.238281 C 232.015625 323.449219 201.535156 336.585938 170.980469 349.726562 C 169.628906 348.898438 169.628906 348.898438 169.628906 348.898438 C 165.726562 345.972656 163.925781 341.84375 162.347656 338.089844 C 159.796875 331.859375 158.445312 324.953125 158.445312 318.195312 C 158.445312 310.539062 160.847656 303.332031 163.699219 296.273438 C 165.953125 290.792969 172.109375 289.441406 177.214844 287.414062 C 197.183594 279.382812 217.226562 271.5 237.195312 263.542969 C 272.253906 249.65625 307.535156 236.140625 342.070312 221.128906 C 338.542969 230.210938 337.789062 240.121094 340.042969 249.878906 C 341.46875 256.109375 344.019531 262.042969 347.925781 267.070312 C 348.976562 268.496094 350.328125 270 351.753906 271.5 C 351.226562 271.726562 350.703125 271.949219 350.175781 272.25 Z M 350.175781 272.25 " fill-opacity="1" fill-rule="nonzero"/></g><path fill="#c62020" d="M 333.285156 195.226562 C 334.035156 195.605469 334.789062 195.902344 335.539062 196.203125 C 337.867188 197.105469 338.917969 193.351562 336.589844 192.449219 C 335.464844 192 334.335938 191.476562 333.285156 190.875 C 332.6875 187.421875 331.558594 183.890625 329.832031 180.890625 C 328.40625 178.488281 326.304688 175.335938 323.375 174.660156 C 319.699219 173.832031 318.570312 177.738281 319.472656 180.664062 C 320.523438 184.042969 322.925781 186.96875 325.328125 189.523438 C 326.90625 191.175781 328.707031 192.675781 330.734375 193.800781 C 330.660156 194.328125 330.507812 194.777344 330.285156 195.226562 C 329.984375 195.753906 329.53125 196.054688 329.007812 196.203125 C 326.980469 193.125 324.578125 190.273438 321.800781 187.871094 C 319.171875 185.617188 316.320312 183.742188 313.09375 182.390625 C 310.464844 181.339844 306.335938 180.363281 303.933594 182.542969 C 301.082031 185.09375 303.484375 188.847656 305.359375 191.175781 C 307.3125 193.5 309.863281 195.226562 312.640625 196.429688 C 315.417969 197.628906 318.347656 198.457031 321.351562 198.980469 C 323 199.28125 324.878906 199.65625 326.679688 199.65625 C 326.753906 199.882812 326.90625 200.109375 326.980469 200.257812 C 327.582031 201.535156 327.730469 202.511719 326.605469 203.410156 C 326.15625 203.710938 325.777344 204.011719 325.253906 204.3125 C 324.277344 203.484375 323.152344 202.660156 322.027344 201.910156 C 319.546875 200.332031 316.695312 198.605469 313.769531 198.230469 C 311.367188 197.929688 308.964844 198.980469 308.511719 201.535156 C 307.910156 204.761719 310.390625 207.464844 313.167969 208.664062 C 317.222656 210.46875 322.101562 210.09375 326.078125 208.140625 C 326.753906 208.816406 327.429688 209.492188 328.105469 210.167969 C 328.855469 210.917969 330.207031 209.941406 329.53125 209.042969 C 329.007812 208.367188 328.480469 207.691406 327.957031 207.015625 C 328.332031 206.789062 328.707031 206.488281 329.007812 206.265625 C 331.558594 204.160156 331.484375 201.535156 330.433594 198.980469 C 332.011719 198.230469 332.910156 196.804688 333.285156 195.226562 Z M 324.726562 183.367188 C 323.976562 182.464844 323.375 181.488281 322.851562 180.4375 C 322.476562 179.6875 321.726562 178.1875 322.027344 177.285156 C 322.777344 175.335938 326.15625 179.839844 326.605469 180.515625 C 328.03125 182.617188 329.082031 184.945312 329.683594 187.421875 C 329.757812 187.796875 329.90625 188.171875 329.984375 188.621094 C 328.03125 187.121094 326.230469 185.320312 324.726562 183.367188 Z M 317.671875 194.777344 C 313.46875 193.652344 309.261719 191.699219 306.636719 188.097656 C 306.109375 187.347656 304.609375 185.46875 305.660156 184.71875 C 306.5625 184.042969 308.4375 184.566406 309.414062 184.792969 C 311.890625 185.46875 313.992188 186.96875 316.09375 188.472656 C 319.097656 190.574219 322.027344 193.125 324.277344 196.128906 C 322.027344 195.753906 319.847656 195.378906 317.671875 194.777344 Z M 318.121094 206.714844 C 315.71875 206.863281 313.617188 206.1875 312.117188 204.238281 C 311.515625 203.484375 310.539062 201.910156 311.515625 201.082031 C 312.117188 200.558594 313.167969 200.707031 313.84375 200.859375 C 316.394531 201.308594 319.023438 202.808594 321.125 204.238281 C 321.726562 204.613281 322.324219 205.0625 322.851562 205.511719 C 321.351562 206.113281 319.773438 206.640625 318.121094 206.714844 Z M 183.144531 265.871094 C 183.519531 265.796875 183.820312 265.71875 184.195312 265.644531 C 184.195312 266.394531 184.195312 267.070312 184.269531 267.820312 C 184.417969 269.773438 187.347656 269.847656 187.347656 267.820312 C 187.347656 266.621094 187.496094 265.496094 187.574219 264.292969 C 189.523438 263.242188 191.328125 261.742188 192.902344 260.164062 C 195.378906 257.613281 197.558594 254.835938 198.757812 251.53125 C 199.734375 248.902344 199.882812 244.625 196.128906 244.550781 C 193.054688 244.476562 190.125 247.476562 188.546875 249.804688 C 186.222656 253.109375 185.09375 257.386719 184.496094 261.289062 C 184.496094 261.367188 184.496094 261.367188 184.496094 261.441406 C 182.542969 262.117188 180.441406 262.417969 178.941406 260.691406 C 178.640625 260.390625 178.414062 260.089844 178.265625 259.714844 C 183.21875 254.085938 185.769531 246.953125 185.921875 239.371094 C 185.996094 236.140625 185.246094 231.335938 181.265625 230.8125 C 177.363281 230.285156 174.660156 234.414062 173.382812 237.570312 C 170.683594 244.324219 170.980469 252.957031 173.757812 259.714844 C 173.082031 260.316406 172.410156 260.914062 171.734375 261.289062 C 169.253906 262.71875 166.703125 260.914062 164.902344 259.113281 C 166.851562 255.511719 167.527344 251.230469 167.605469 247.101562 C 167.605469 243.875 167.304688 239.820312 164.75 237.492188 C 162.425781 235.390625 158.445312 234.867188 156.417969 237.570312 C 154.542969 240.121094 154.839844 244.101562 155.292969 247.027344 C 155.894531 250.632812 157.320312 254.085938 159.347656 257.085938 C 160.023438 258.0625 160.773438 259.039062 161.597656 260.015625 C 160.847656 261.214844 159.945312 262.417969 158.894531 263.46875 C 158.292969 264.070312 159.121094 265.269531 159.871094 264.746094 C 161.148438 263.84375 162.273438 262.792969 163.25 261.667969 C 164.601562 262.867188 166.027344 263.917969 167.679688 264.519531 C 170.683594 265.644531 173.234375 264.445312 175.410156 262.566406 C 177.136719 265.121094 179.914062 266.320312 183.144531 265.871094 Z M 188.773438 257.988281 C 189.601562 255.136719 190.652344 252.207031 192.753906 250.03125 C 193.351562 249.429688 196.882812 246.425781 197.03125 248.527344 C 197.105469 249.730469 196.128906 251.382812 195.53125 252.359375 C 194.855469 253.558594 193.953125 254.761719 193.054688 255.8125 C 191.703125 257.3125 190.125 258.589844 188.324219 259.640625 C 188.472656 259.113281 188.625 258.511719 188.773438 257.988281 Z M 176.238281 243.273438 C 176.6875 241.023438 177.289062 238.542969 178.714844 236.742188 C 179.164062 236.21875 180.214844 234.941406 180.816406 235.316406 C 181.640625 235.765625 181.71875 237.644531 181.71875 238.394531 C 182.09375 244.324219 180.667969 250.105469 177.4375 255.058594 C 177.210938 255.433594 176.988281 255.8125 176.6875 256.1875 C 176.460938 255.136719 176.238281 254.085938 176.085938 253.183594 C 175.5625 249.878906 175.636719 246.5 176.238281 243.273438 Z M 162.875 257.085938 C 159.644531 253.183594 157.621094 248.230469 157.542969 243.125 C 157.542969 241.847656 157.46875 240.269531 158.21875 239.144531 C 159.195312 237.644531 161.148438 238.019531 162.347656 238.996094 C 164.527344 240.796875 164.300781 244.550781 164.375 247.101562 C 164.527344 250.628906 164.074219 254.007812 162.875 257.085938 Z M 222.253906 24.140625 C 221.957031 23.613281 222.707031 23.164062 223.082031 23.691406 C 233.066406 39.003906 244.175781 53.71875 254.910156 68.582031 C 265.496094 83.148438 275.933594 97.785156 286.667969 112.273438 C 297.628906 127.136719 308.738281 141.851562 319.847656 156.640625 C 331.183594 171.65625 342.96875 186.292969 354.082031 201.382812 C 354.90625 202.511719 351.980469 203.484375 351.152344 202.433594 C 339.066406 187.269531 328.632812 171.882812 316.695312 156.566406 C 305.886719 142.601562 292.898438 124.734375 282.164062 110.699219 C 271.203125 96.433594 262.945312 85.171875 252.734375 70.308594 C 242 54.921875 231.863281 40.054688 222.253906 24.140625 Z M 343.421875 213.320312 C 330.433594 218.949219 318.796875 223.230469 305.734375 228.484375 C 298.003906 231.5625 290.269531 234.714844 282.539062 237.867188 C 274.054688 241.320312 265.496094 244.773438 257.015625 248.230469 C 248.53125 251.683594 239.972656 255.136719 231.414062 258.511719 C 223.605469 261.589844 215.875 264.667969 208.066406 267.746094 C 201.761719 270.148438 195.457031 272.550781 189.148438 274.804688 C 185.09375 276.230469 181.042969 277.730469 176.914062 278.707031 C 176.613281 278.78125 172.707031 279.757812 173.683594 278.40625 C 172.933594 278.707031 172.558594 277.429688 173.308594 277.132812 C 176.539062 275.855469 179.839844 274.503906 183.070312 273.226562 C 193.652344 269.023438 204.238281 264.820312 214.898438 260.691406 C 226.308594 256.1875 237.71875 251.757812 249.054688 247.253906 C 260.316406 242.824219 271.652344 238.394531 282.914062 233.890625 C 293.199219 229.835938 304.535156 225.78125 314.742188 221.652344 C 321.050781 219.101562 326.605469 216.925781 332.835938 214.296875 C 339.214844 211.59375 345.597656 208.742188 351.902344 205.8125 C 353.855469 204.914062 355.28125 208.289062 353.332031 209.265625 C 350.777344 210.617188 346.199219 212.121094 343.421875 213.320312 Z M 361.664062 276.605469 C 354.53125 280.808594 346.648438 283.738281 338.992188 287.039062 C 331.335938 290.34375 323.675781 293.570312 316.019531 296.875 C 301.15625 303.179688 286.214844 309.488281 271.277344 315.644531 C 240.496094 328.328125 209.570312 340.640625 178.414062 352.351562 C 177.4375 352.726562 177.0625 351.226562 177.964844 350.851562 C 208.667969 338.015625 239.445312 325.328125 270.074219 312.339844 C 285.316406 305.882812 300.628906 299.503906 315.871094 292.972656 C 330.582031 286.664062 345.296875 278.859375 360.613281 274.203125 C 362.113281 273.753906 362.9375 275.855469 361.664062 276.605469 Z M 22.714844 91.40625 C 9.503906 110.171875 8.679688 132.394531 9.652344 154.539062 C 9.730469 155.742188 7.925781 155.742188 7.777344 154.539062 C 5.75 132.695312 6.800781 108.296875 20.6875 90.203125 C 21.589844 89.003906 23.542969 90.128906 22.714844 91.40625 Z M 209.867188 29.171875 C 209.269531 28.796875 208.667969 28.417969 208.066406 28.195312 C 207.089844 27.742188 206.039062 27.519531 204.988281 27.445312 C 205.214844 26.691406 205.363281 25.941406 205.589844 25.191406 C 205.816406 24.140625 204.238281 23.691406 204.011719 24.742188 C 203.789062 25.640625 203.488281 26.542969 203.261719 27.367188 C 201.6875 27.519531 200.109375 27.96875 198.757812 28.796875 C 194.179688 31.648438 189.375 35.027344 186.746094 39.90625 C 185.769531 41.707031 183.96875 45.011719 185.695312 46.8125 C 188.097656 49.363281 191.476562 47.414062 193.652344 45.535156 C 198.53125 41.332031 202.285156 36.300781 204.3125 30.144531 C 204.390625 29.921875 204.464844 29.769531 204.464844 29.546875 C 205.664062 29.695312 206.789062 30.144531 207.84375 31.121094 C 207.464844 31.574219 207.167969 31.949219 206.789062 32.398438 C 205.738281 33.75 204.613281 35.101562 203.714844 36.527344 C 201.910156 39.457031 200.785156 42.832031 200.335938 46.210938 C 199.882812 49.441406 200.109375 53.042969 202.8125 55.296875 C 205.140625 57.246094 208.59375 56.421875 210.46875 54.246094 C 212.648438 51.765625 213.398438 48.539062 213.621094 45.3125 C 213.847656 41.78125 213.621094 38.105469 212.945312 34.652344 C 212.722656 33.601562 212.570312 32.324219 212.046875 31.347656 C 212.269531 31.199219 212.570312 31.046875 212.871094 31.046875 C 214.074219 30.746094 215.050781 31.199219 216.023438 32.023438 C 214.898438 38.179688 214.296875 44.710938 216.398438 50.792969 C 217 52.441406 218.203125 55.21875 219.929688 56.347656 C 222.03125 57.699219 224.734375 56.648438 226.085938 54.695312 C 226.910156 53.492188 227.285156 51.992188 227.4375 50.492188 C 227.660156 48.3125 227.359375 46.0625 226.761719 43.960938 C 226.460938 42.832031 226.007812 41.78125 225.484375 40.730469 C 224.507812 38.703125 223.308594 36.753906 221.957031 34.949219 C 221.503906 34.273438 220.078125 33.074219 219.929688 32.324219 C 219.777344 31.574219 220.90625 29.921875 221.203125 29.171875 C 221.65625 28.195312 221.503906 27.070312 220.527344 26.46875 C 219.703125 25.941406 218.277344 26.167969 217.828125 27.144531 C 217.527344 27.894531 217.226562 28.644531 216.925781 29.394531 C 215.050781 28.195312 212.945312 27.667969 210.621094 28.871094 C 210.320312 28.871094 210.09375 29.019531 209.867188 29.171875 Z M 197.78125 38.480469 C 196.207031 40.507812 194.402344 42.457031 192.378906 44.109375 C 191.402344 44.933594 190.050781 45.761719 188.847656 45.910156 C 187.574219 46.0625 187.046875 45.160156 187.273438 44.109375 C 188.097656 40.054688 190.949219 37.054688 194.027344 34.5 C 196.28125 32.625 199.359375 30.222656 202.4375 29.621094 C 201.3125 32.773438 199.882812 35.777344 197.78125 38.480469 Z M 209.644531 45.3125 C 209.417969 47.414062 209.042969 49.890625 207.84375 51.691406 C 207.390625 52.367188 207.015625 52.742188 206.265625 52.96875 C 204.914062 53.269531 204.089844 52.667969 203.5625 51.390625 C 202.585938 49.0625 203.261719 46.210938 203.9375 43.882812 C 204.613281 41.332031 205.664062 39.15625 207.167969 37.054688 C 207.917969 36.078125 208.59375 35.027344 209.34375 34.050781 C 209.417969 35.101562 209.417969 36.226562 209.492188 37.203125 C 209.792969 39.90625 209.945312 42.609375 209.644531 45.3125 Z M 218.125 38.855469 C 218.277344 37.878906 218.503906 36.902344 218.800781 35.925781 C 219.476562 37.128906 223.832031 44.183594 224.058594 47.5625 C 224.132812 49.140625 224.359375 52.066406 222.78125 52.667969 C 221.957031 52.96875 221.203125 52.742188 220.605469 52.21875 C 220.304688 51.765625 220.003906 51.316406 219.777344 50.792969 C 219.402344 50.039062 219.101562 49.289062 218.878906 48.539062 C 218.425781 46.511719 217.828125 42.382812 218.125 38.855469 Z M 48.015625 89.300781 C 48.316406 89.527344 48.617188 89.753906 48.914062 89.902344 C 46.515625 95.757812 51.617188 103.191406 56.046875 106.644531 C 59.953125 109.648438 73.691406 114.828125 72.039062 104.765625 C 71.585938 101.839844 69.109375 99.363281 66.558594 97.183594 C 69.636719 98.085938 72.863281 98.6875 76.09375 98.613281 C 79.09375 98.613281 84.125 98.460938 86.300781 95.910156 C 91.554688 89.753906 77.820312 86.148438 74.441406 85.324219 C 69.410156 84.121094 60.703125 82.621094 54.621094 84.722656 C 54.621094 84.496094 54.621094 84.273438 54.695312 84.046875 C 54.921875 82.769531 55.746094 81.71875 56.796875 80.820312 C 63.253906 82.996094 70.910156 83.746094 76.992188 81.195312 C 81.722656 79.167969 79.546875 73.164062 74.964844 72.488281 C 69.5625 71.734375 60.777344 73.914062 55.824219 78.191406 C 54.921875 77.890625 54.097656 77.589844 53.195312 77.214844 C 52.070312 76.691406 51.019531 78.34375 52.144531 78.941406 C 52.746094 79.242188 53.421875 79.542969 54.097656 79.84375 C 53.570312 80.445312 53.195312 81.121094 52.820312 81.796875 C 52.070312 83.371094 51.769531 84.796875 51.917969 86.074219 C 51.695312 86.226562 51.542969 86.375 51.394531 86.449219 C 50.792969 86.148438 50.117188 85.847656 49.441406 85.550781 C 47.265625 84.796875 46.363281 88.101562 48.015625 89.300781 Z M 63.855469 77.441406 C 66.632812 76.539062 71.363281 74.890625 74.214844 75.789062 C 79.46875 77.441406 74.816406 78.941406 72.789062 79.316406 C 68.433594 80.21875 63.855469 80.144531 59.5 79.242188 C 61.003906 78.417969 62.578125 77.890625 63.855469 77.441406 Z M 63.855469 87.277344 C 66.558594 87.277344 85.777344 88.777344 83.675781 94.183594 C 83.074219 95.757812 76.09375 95.308594 74.515625 95.15625 C 71.210938 94.933594 67.910156 94.257812 64.832031 93.054688 C 62.429688 92.15625 57.847656 90.652344 55.746094 87.953125 C 58.300781 87.199219 61.527344 87.277344 63.855469 87.277344 Z M 51.917969 92.003906 C 55.898438 94.632812 59.875 97.109375 63.554688 100.339844 C 64.457031 101.164062 65.957031 102.066406 66.558594 103.117188 C 67.832031 105.441406 66.183594 106.871094 64.082031 106.644531 C 61.152344 106.34375 57.773438 103.640625 55.824219 101.539062 C 53.796875 99.363281 51.242188 95.308594 51.917969 92.003906 Z M 156.566406 292.972656 C 149.363281 312.640625 148.460938 334.484375 156.042969 354.152344 C 156.269531 354.753906 155.21875 355.207031 154.917969 354.605469 C 146.132812 334.636719 144.855469 312.265625 153.339844 292.070312 C 154.164062 290.195312 157.320312 290.945312 156.566406 292.972656 Z M 165.726562 279.382812 C 166.628906 280.585938 164.601562 281.710938 163.773438 280.507812 C 152.0625 264.519531 139.753906 248.902344 128.042969 232.914062 C 116.480469 217.148438 105.070312 201.382812 93.734375 185.542969 C 70.910156 153.640625 48.765625 121.132812 27.445312 88.175781 C 26.019531 86 29.472656 84.046875 30.898438 86.148438 C 53.796875 118.128906 76.390625 150.261719 98.6875 182.617188 C 109.722656 198.605469 120.835938 214.597656 131.945312 230.585938 C 143.28125 246.878906 154.164062 263.394531 165.726562 279.382812 Z M 81.496094 59.800781 C 102.667969 51.765625 123.761719 43.585938 145.234375 36.378906 C 156.117188 32.773438 167.003906 29.171875 177.886719 25.71875 C 188.324219 22.414062 199.132812 17.984375 209.945312 16.410156 C 210.996094 16.257812 211.894531 17.757812 210.769531 18.285156 C 200.785156 23.089844 189.375 25.566406 178.789062 28.945312 C 168.203125 32.324219 157.621094 35.851562 147.035156 39.378906 C 125.339844 46.660156 103.492188 53.570312 81.871094 61.226562 C 80.972656 61.601562 80.597656 60.175781 81.496094 59.800781 Z M 81.496094 59.800781 " fill-opacity="1" fill-rule="nonzero"/><g clip-path="url(#66056c274c)"><g clip-path="url(#89c104ec01)"><g clip-path="url(#cd046a3625)"><g clip-path="url(#c188b5cd68)"><path fill="#000000" d="M 135.847656 122.179688 L 137.5 125.132812 L 134.546875 126.785156 L 131.242188 120.871094 L 134.195312 119.222656 Z M 195.265625 96.738281 L 192.3125 98.386719 L 189.359375 100.039062 L 186.40625 101.6875 L 183.453125 103.339844 L 180.5 104.988281 L 177.546875 106.640625 L 171.640625 109.9375 L 168.683594 111.589844 L 165.730469 113.238281 L 162.777344 114.890625 L 156.871094 118.1875 L 153.917969 119.839844 L 150.964844 121.488281 L 148.011719 123.140625 L 145.058594 124.789062 L 142.101562 126.4375 L 143.753906 129.394531 L 146.707031 127.746094 L 149.660156 126.09375 L 152.617188 124.445312 L 155.570312 122.792969 L 161.476562 119.496094 L 164.429688 117.84375 L 167.382812 116.195312 L 170.335938 114.542969 L 176.242188 111.246094 L 179.199219 109.59375 L 182.152344 107.945312 L 185.105469 106.292969 L 188.058594 104.644531 L 191.011719 102.992188 L 196.917969 99.695312 L 199.871094 98.042969 L 198.222656 95.089844 Z M 137.5 125.132812 L 139.148438 128.089844 L 142.101562 126.4375 L 140.453125 123.484375 Z M 135.5 114.617188 L 132.546875 116.265625 L 134.195312 119.222656 L 137.148438 117.574219 Z M 170.59375 87.253906 L 167.640625 88.90625 L 169.289062 91.859375 L 172.242188 90.210938 Z M 202.824219 96.394531 L 199.871094 98.042969 L 201.523438 101 L 204.476562 99.347656 L 207.429688 97.699219 L 205.777344 94.742188 Z M 141.40625 111.316406 L 144.359375 109.667969 L 147.3125 108.015625 L 150.265625 106.367188 L 153.21875 104.714844 L 156.171875 103.066406 L 159.128906 101.417969 L 162.082031 99.765625 L 165.035156 98.117188 L 167.988281 96.464844 L 170.941406 94.816406 L 169.289062 91.859375 L 166.335938 93.511719 L 163.382812 95.160156 L 160.429688 96.8125 L 154.523438 100.109375 L 151.570312 101.761719 L 148.617188 103.410156 L 145.660156 105.0625 L 139.753906 108.359375 L 136.800781 110.011719 L 133.847656 111.660156 L 135.5 114.617188 L 138.453125 112.96875 Z M 216.988281 107.871094 L 214.035156 109.523438 L 215.6875 112.476562 L 218.640625 110.828125 Z M 186.5 136.539062 L 183.546875 138.1875 L 185.195312 141.144531 L 188.152344 139.496094 Z M 246.964844 133.78125 L 245.316406 130.828125 L 243.664062 127.871094 L 240.710938 129.523438 L 239.058594 126.566406 L 236.105469 128.214844 L 234.453125 125.261719 L 231.5 126.910156 L 229.847656 123.953125 L 226.894531 125.605469 L 223.941406 127.253906 L 222.289062 124.300781 L 219.335938 125.949219 L 216.382812 127.601562 L 210.476562 130.898438 L 207.523438 132.550781 L 204.570312 134.199219 L 201.617188 135.851562 L 195.710938 139.148438 L 192.753906 140.800781 L 189.800781 142.449219 L 186.847656 144.101562 L 185.195312 141.144531 L 182.242188 142.792969 L 183.894531 145.75 L 180.941406 147.398438 L 177.988281 149.050781 L 175.035156 150.699219 L 172.082031 152.351562 L 169.128906 154 L 166.171875 155.652344 L 160.265625 158.949219 L 157.3125 160.601562 L 154.359375 162.25 L 151.40625 163.902344 L 153.058594 166.855469 L 150.101562 168.507812 L 147.148438 170.15625 L 148.800781 173.113281 L 145.847656 174.761719 L 147.5 177.71875 L 144.546875 179.367188 L 146.195312 182.324219 L 143.242188 183.972656 L 144.894531 186.929688 L 146.542969 189.882812 L 143.589844 191.535156 L 145.242188 194.488281 L 146.894531 197.445312 L 148.542969 200.402344 L 150.195312 203.355469 L 153.5 209.269531 L 156.453125 207.617188 L 158.101562 210.574219 L 159.753906 213.527344 L 162.707031 211.878906 L 164.359375 214.835938 L 167.3125 213.183594 L 168.964844 216.140625 L 171.917969 214.488281 L 174.871094 212.839844 L 176.523438 215.796875 L 179.476562 214.144531 L 182.429688 212.496094 L 185.382812 210.84375 L 191.289062 207.546875 L 194.242188 205.894531 L 197.195312 204.246094 L 195.546875 201.289062 L 198.5 199.640625 L 201.453125 197.988281 L 199.800781 195.035156 L 202.753906 193.382812 L 201.105469 190.429688 L 204.058594 188.777344 L 202.40625 185.824219 L 200.753906 182.867188 L 203.707031 181.21875 L 202.058594 178.261719 L 205.011719 176.613281 L 207.964844 174.960938 L 209.617188 177.917969 L 212.570312 176.265625 L 214.21875 179.222656 L 215.871094 182.179688 L 218.824219 180.527344 L 220.476562 183.484375 L 223.429688 181.832031 L 225.082031 184.789062 L 228.035156 183.140625 L 230.988281 181.488281 L 232.640625 184.445312 L 235.59375 182.792969 L 241.5 179.496094 L 244.453125 177.84375 L 247.40625 176.195312 L 250.359375 174.542969 L 253.3125 172.894531 L 251.664062 169.9375 L 254.617188 168.289062 L 257.570312 166.636719 L 255.917969 163.683594 L 258.871094 162.03125 L 257.222656 159.078125 L 260.175781 157.425781 L 258.523438 154.472656 L 256.871094 151.515625 L 259.828125 149.867188 L 256.523438 143.953125 L 254.871094 141 L 253.222656 138.042969 L 251.570312 135.089844 L 249.917969 132.132812 Z M 192.40625 133.238281 L 195.359375 131.589844 L 198.3125 129.9375 L 201.265625 128.289062 L 204.222656 126.636719 L 210.128906 123.339844 L 213.082031 121.6875 L 211.429688 118.734375 L 205.523438 122.03125 L 202.570312 123.683594 L 199.617188 125.332031 L 196.664062 126.984375 L 193.710938 128.632812 L 190.753906 130.285156 L 184.847656 133.582031 L 186.5 136.539062 L 189.453125 134.890625 Z M 217.335938 115.433594 L 215.6875 112.476562 L 212.734375 114.128906 L 209.777344 115.777344 L 211.429688 118.734375 L 214.382812 117.082031 Z M 207.429688 97.699219 L 209.082031 100.65625 L 212.035156 99.003906 L 210.382812 96.050781 Z M 218.292969 103.265625 L 216.640625 100.308594 L 214.988281 97.355469 L 212.035156 99.003906 L 213.6875 101.960938 L 215.335938 104.917969 L 216.988281 107.871094 L 219.941406 106.222656 Z M 218.292969 103.265625 " fill-opacity="0.3" fill-rule="nonzero"/></g></g></g></g><g clip-path="url(#950d52b1b5)"><g clip-path="url(#3644e197a1)"><g clip-path="url(#37027e6acc)"><g clip-path="url(#20783c979b)"><path fill="#000000" d="M 137.148438 117.574219 L 138.800781 120.527344 L 135.847656 122.179688 L 134.195312 119.222656 L 132.546875 116.265625 L 135.5 114.617188 Z M 196.570312 92.132812 L 193.617188 93.78125 L 190.664062 95.433594 L 187.710938 97.082031 L 184.753906 98.734375 L 178.847656 102.03125 L 175.894531 103.683594 L 172.941406 105.332031 L 169.988281 106.984375 L 167.035156 108.632812 L 164.082031 110.285156 L 161.128906 111.933594 L 158.171875 113.582031 L 155.21875 115.234375 L 152.265625 116.882812 L 149.3125 118.535156 L 143.40625 121.832031 L 145.058594 124.789062 L 148.011719 123.140625 L 150.964844 121.488281 L 153.917969 119.839844 L 156.871094 118.1875 L 162.777344 114.890625 L 165.730469 113.238281 L 168.683594 111.589844 L 171.640625 109.9375 L 177.546875 106.640625 L 180.5 104.988281 L 183.453125 103.339844 L 186.40625 101.6875 L 189.359375 100.039062 L 192.3125 98.386719 L 195.265625 96.738281 L 198.222656 95.089844 L 201.175781 93.4375 L 199.523438 90.484375 Z M 138.800781 120.527344 L 140.453125 123.484375 L 143.40625 121.832031 L 141.753906 118.878906 Z M 136.800781 110.011719 L 133.847656 111.660156 L 135.5 114.617188 L 138.453125 112.96875 Z M 171.894531 82.648438 L 168.941406 84.300781 L 170.59375 87.253906 L 173.546875 85.605469 Z M 204.128906 91.789062 L 201.175781 93.4375 L 202.824219 96.394531 L 205.777344 94.742188 L 208.734375 93.09375 L 207.082031 90.136719 Z M 142.707031 106.710938 L 145.660156 105.0625 L 148.617188 103.410156 L 151.570312 101.761719 L 154.523438 100.109375 L 160.429688 96.8125 L 163.382812 95.160156 L 166.335938 93.511719 L 169.289062 91.859375 L 172.242188 90.210938 L 170.59375 87.253906 L 167.640625 88.90625 L 164.683594 90.554688 L 161.730469 92.207031 L 155.824219 95.503906 L 152.871094 97.15625 L 149.917969 98.804688 L 146.964844 100.457031 L 141.058594 103.753906 L 138.105469 105.40625 L 135.148438 107.054688 L 136.800781 110.011719 L 139.753906 108.363281 Z M 218.292969 103.265625 L 215.335938 104.917969 L 216.988281 107.871094 L 219.941406 106.222656 Z M 187.800781 131.933594 L 184.847656 133.582031 L 186.5 136.539062 L 189.453125 134.890625 Z M 248.269531 129.175781 L 246.617188 126.222656 L 244.964844 123.265625 L 242.011719 124.917969 L 240.359375 121.960938 L 237.40625 123.609375 L 235.757812 120.65625 L 232.804688 122.304688 L 231.152344 119.347656 L 228.199219 121 L 225.246094 122.648438 L 223.59375 119.695312 L 217.6875 122.992188 L 214.734375 124.644531 L 211.777344 126.292969 L 208.824219 127.945312 L 205.871094 129.59375 L 202.917969 131.246094 L 197.011719 134.542969 L 194.058594 136.195312 L 191.105469 137.84375 L 188.152344 139.496094 L 186.5 136.539062 L 183.546875 138.1875 L 185.195312 141.144531 L 182.242188 142.792969 L 179.289062 144.445312 L 176.335938 146.09375 L 173.382812 147.746094 L 167.476562 151.042969 L 164.523438 152.695312 L 161.570312 154.34375 L 158.613281 155.996094 L 155.660156 157.644531 L 152.707031 159.296875 L 154.359375 162.25 L 151.40625 163.902344 L 148.453125 165.550781 L 150.101562 168.507812 L 147.148438 170.15625 L 148.800781 173.113281 L 145.847656 174.761719 L 147.5 177.71875 L 144.546875 179.367188 L 146.195312 182.324219 L 147.847656 185.277344 L 144.894531 186.929688 L 146.542969 189.882812 L 149.847656 195.796875 L 151.5 198.75 L 153.148438 201.707031 L 154.800781 204.664062 L 157.753906 203.011719 L 159.40625 205.96875 L 161.058594 208.921875 L 164.011719 207.273438 L 165.660156 210.230469 L 168.613281 208.578125 L 170.265625 211.535156 L 173.21875 209.882812 L 176.171875 208.234375 L 177.824219 211.191406 L 180.777344 209.539062 L 183.730469 207.890625 L 186.683594 206.238281 L 189.636719 204.589844 L 192.59375 202.941406 L 195.546875 201.289062 L 198.5 199.640625 L 196.847656 196.683594 L 199.800781 195.035156 L 202.753906 193.382812 L 201.105469 190.429688 L 204.058594 188.777344 L 202.40625 185.824219 L 205.359375 184.171875 L 203.707031 181.21875 L 202.058594 178.261719 L 205.011719 176.613281 L 203.359375 173.65625 L 206.3125 172.003906 L 209.265625 170.355469 L 210.917969 173.3125 L 213.871094 171.660156 L 217.175781 177.574219 L 220.128906 175.921875 L 221.777344 178.878906 L 224.734375 177.226562 L 226.382812 180.183594 L 229.335938 178.535156 L 232.289062 176.882812 L 233.941406 179.839844 L 236.894531 178.1875 L 242.800781 174.890625 L 245.757812 173.238281 L 248.710938 171.589844 L 251.664062 169.9375 L 254.617188 168.289062 L 252.964844 165.332031 L 255.917969 163.683594 L 258.871094 162.03125 L 257.222656 159.078125 L 260.175781 157.425781 L 258.523438 154.472656 L 261.476562 152.820312 L 259.828125 149.867188 L 258.175781 146.910156 L 261.128906 145.261719 L 259.476562 142.304688 L 257.828125 139.347656 L 256.175781 136.394531 L 254.523438 133.4375 L 252.871094 130.484375 L 251.222656 127.527344 Z M 193.710938 128.632812 L 196.664062 126.984375 L 199.617188 125.332031 L 202.570312 123.683594 L 205.523438 122.03125 L 211.429688 118.734375 L 214.382812 117.082031 L 212.734375 114.128906 L 209.777344 115.777344 L 206.824219 117.425781 L 203.871094 119.078125 L 200.917969 120.726562 L 197.964844 122.378906 L 192.058594 125.675781 L 189.105469 127.328125 L 186.152344 128.976562 L 187.800781 131.933594 L 190.753906 130.285156 Z M 218.640625 110.828125 L 216.988281 107.871094 L 214.035156 109.523438 L 211.082031 111.171875 L 212.734375 114.128906 L 215.6875 112.476562 Z M 208.734375 93.09375 L 210.382812 96.050781 L 213.335938 94.398438 L 211.6875 91.445312 Z M 219.59375 98.660156 L 217.941406 95.703125 L 216.292969 92.75 L 213.335938 94.398438 L 214.988281 97.355469 L 216.640625 100.308594 L 218.292969 103.265625 L 221.246094 101.617188 Z M 219.59375 98.660156 " fill-opacity="1" fill-rule="nonzero"/></g></g></g></g><g clip-path="url(#25f1400dc4)"><g clip-path="url(#474a1ffa75)"><g clip-path="url(#d518d69045)"><g clip-path="url(#8195dbc4f7)"><path fill="#1ca4ff" d="M 183.894531 145.75 L 195.710938 139.148438 L 199.011719 145.0625 L 187.195312 151.660156 Z M 183.894531 145.75 " fill-opacity="1" fill-rule="nonzero"/></g></g></g></g><g clip-path="url(#36f3610c53)"><g clip-path="url(#0f8718d68b)"><g clip-path="url(#4b95eb570f)"><g clip-path="url(#91a0db7de8)"><path fill="#fb4fab" d="M 245.316406 130.828125 L 243.664062 127.871094 L 242.011719 124.917969 L 239.058594 126.566406 L 237.40625 123.609375 L 234.453125 125.261719 L 232.804688 122.304688 L 229.847656 123.953125 L 226.894531 125.605469 L 225.246094 122.648438 L 222.289062 124.300781 L 219.335938 125.949219 L 216.382812 127.601562 L 210.476562 130.898438 L 207.523438 132.550781 L 204.570312 134.199219 L 201.617188 135.851562 L 198.664062 137.5 L 200.3125 140.457031 L 201.964844 143.410156 L 203.617188 146.367188 L 200.664062 148.015625 L 197.707031 149.667969 L 194.753906 151.316406 L 191.800781 152.96875 L 185.894531 156.265625 L 184.242188 153.3125 L 182.59375 150.355469 L 180.941406 147.398438 L 177.988281 149.050781 L 175.035156 150.699219 L 172.082031 152.351562 L 169.128906 154 L 166.171875 155.652344 L 160.265625 158.949219 L 157.3125 160.601562 L 154.359375 162.25 L 156.011719 165.207031 L 153.058594 166.855469 L 150.101562 168.507812 L 151.753906 171.460938 L 148.800781 173.113281 L 150.453125 176.066406 L 147.5 177.71875 L 149.148438 180.671875 L 150.800781 183.628906 L 147.847656 185.277344 L 149.5 188.234375 L 151.148438 191.191406 L 152.800781 194.144531 L 154.453125 197.101562 L 156.101562 200.054688 L 157.753906 203.011719 L 160.707031 201.363281 L 162.359375 204.316406 L 164.011719 207.273438 L 166.964844 205.625 L 168.613281 208.578125 L 171.570312 206.929688 L 174.523438 205.277344 L 176.171875 208.234375 L 179.125 206.585938 L 182.082031 204.933594 L 185.035156 203.285156 L 187.988281 201.632812 L 190.941406 199.984375 L 193.894531 198.332031 L 196.847656 196.683594 L 195.195312 193.726562 L 198.152344 192.078125 L 201.105469 190.429688 L 199.453125 187.472656 L 202.40625 185.824219 L 200.753906 182.867188 L 199.105469 179.910156 L 202.058594 178.261719 L 200.40625 175.304688 L 198.753906 172.351562 L 201.707031 170.699219 L 204.664062 169.050781 L 207.617188 167.398438 L 210.570312 165.75 L 212.21875 168.707031 L 213.871094 171.660156 L 216.824219 170.011719 L 218.476562 172.964844 L 220.128906 175.921875 L 223.082031 174.273438 L 224.734375 177.226562 L 230.640625 173.929688 L 232.289062 176.882812 L 235.246094 175.234375 L 238.199219 173.582031 L 241.152344 171.933594 L 244.105469 170.28125 L 250.011719 166.984375 L 252.964844 165.332031 L 251.3125 162.378906 L 254.269531 160.726562 L 257.222656 159.078125 L 255.570312 156.121094 L 258.523438 154.472656 L 256.871094 151.515625 L 255.222656 148.5625 L 258.175781 146.910156 L 256.523438 143.953125 L 254.871094 141 L 253.222656 138.042969 L 251.570312 135.089844 L 249.917969 132.132812 L 248.269531 129.175781 Z M 245.316406 130.828125 " fill-opacity="1" fill-rule="nonzero"/></g></g></g></g><g clip-path="url(#765bbb25dc)"><g clip-path="url(#928b86ff71)"><g clip-path="url(#432fc4b391)"><g clip-path="url(#48c85b2a04)"><path fill="#e5ff00" d="M 242.710938 140.039062 L 244.359375 142.992188 L 246.011719 145.949219 L 243.058594 147.597656 L 240.105469 149.25 L 238.453125 146.292969 L 236.800781 143.339844 L 239.757812 141.6875 Z M 232.894531 157.15625 L 234.546875 160.109375 L 236.199219 163.066406 L 239.152344 161.417969 L 242.105469 159.765625 L 240.453125 156.8125 L 238.800781 153.855469 L 235.847656 155.503906 Z M 222.988281 139.421875 L 224.640625 142.378906 L 226.289062 145.332031 L 229.246094 143.683594 L 232.199219 142.03125 L 230.546875 139.078125 L 228.894531 136.121094 L 225.941406 137.773438 Z M 219.082031 153.238281 L 220.734375 156.195312 L 222.382812 159.148438 L 228.289062 155.851562 L 226.640625 152.894531 L 224.988281 149.9375 L 222.035156 151.589844 Z M 176.429688 180.945312 L 174.777344 177.988281 L 173.125 175.035156 L 170.171875 176.683594 L 171.824219 179.640625 L 173.476562 182.59375 L 170.523438 184.246094 L 167.570312 185.894531 L 169.21875 188.851562 L 172.171875 187.199219 L 175.125 185.550781 L 176.777344 188.507812 L 178.429688 191.460938 L 181.382812 189.8125 L 179.730469 186.855469 L 178.082031 183.902344 L 181.035156 182.25 L 183.988281 180.601562 L 182.335938 177.644531 L 179.382812 179.296875 Z M 176.429688 180.945312 " fill-opacity="1" fill-rule="nonzero"/></g></g></g></g><g clip-path="url(#2bbfddbf86)"><g clip-path="url(#1784af0c38)"><g clip-path="url(#17ed5a98b2)"><g clip-path="url(#a50d2a0e98)"><path fill="#000000" d="M 198.152344 192.078125 L 201.105469 190.429688 L 202.753906 193.382812 L 199.800781 195.035156 L 196.847656 196.683594 L 195.195312 193.726562 Z M 171.570312 206.929688 L 168.613281 208.578125 L 170.265625 211.535156 L 173.21875 209.882812 L 176.171875 208.234375 L 174.523438 205.277344 Z M 210.570312 165.75 L 207.617188 167.398438 L 204.664062 169.050781 L 201.707031 170.699219 L 198.753906 172.351562 L 200.40625 175.304688 L 202.058594 178.261719 L 205.011719 176.613281 L 203.359375 173.65625 L 206.3125 172.003906 L 209.265625 170.355469 L 210.917969 173.3125 L 213.871094 171.660156 L 212.21875 168.707031 Z M 220.128906 175.921875 L 221.777344 178.878906 L 224.734375 177.226562 L 223.082031 174.273438 Z M 216.824219 170.011719 L 213.871094 171.660156 L 217.175781 177.574219 L 220.128906 175.921875 L 218.476562 172.964844 Z M 227.6875 175.578125 L 224.734375 177.226562 L 226.382812 180.183594 L 229.335938 178.535156 L 232.289062 176.882812 L 230.640625 173.929688 Z M 164.011719 207.273438 L 165.660156 210.230469 L 168.613281 208.578125 L 166.964844 205.625 Z M 201.105469 190.429688 L 204.058594 188.777344 L 202.40625 185.824219 L 199.453125 187.472656 Z M 200.753906 182.867188 L 202.40625 185.824219 L 205.359375 184.171875 L 203.707031 181.21875 L 202.058594 178.261719 L 199.105469 179.910156 Z M 190.941406 199.984375 L 187.988281 201.632812 L 185.035156 203.285156 L 182.082031 204.933594 L 179.125 206.585938 L 176.171875 208.234375 L 177.824219 211.191406 L 180.777344 209.539062 L 183.730469 207.890625 L 186.683594 206.238281 L 189.636719 204.589844 L 192.59375 202.941406 L 195.546875 201.289062 L 198.5 199.640625 L 196.847656 196.683594 L 193.894531 198.332031 Z M 237.40625 123.609375 L 235.757812 120.65625 L 232.804688 122.304688 L 234.453125 125.261719 Z M 157.3125 160.601562 L 154.359375 162.25 L 152.707031 159.296875 L 155.660156 157.644531 L 158.613281 155.996094 L 161.570312 154.34375 L 164.523438 152.695312 L 167.476562 151.042969 L 173.382812 147.746094 L 176.335938 146.09375 L 179.289062 144.445312 L 182.242188 142.792969 L 185.195312 141.144531 L 183.546875 138.1875 L 186.5 136.539062 L 188.152344 139.496094 L 191.105469 137.84375 L 194.058594 136.195312 L 197.011719 134.542969 L 202.917969 131.246094 L 205.871094 129.59375 L 208.824219 127.945312 L 211.777344 126.292969 L 214.734375 124.644531 L 217.6875 122.992188 L 223.59375 119.695312 L 225.246094 122.648438 L 222.289062 124.300781 L 219.335938 125.949219 L 216.382812 127.601562 L 210.476562 130.898438 L 207.523438 132.550781 L 204.570312 134.199219 L 201.617188 135.851562 L 198.664062 137.5 L 200.3125 140.457031 L 201.964844 143.410156 L 203.617188 146.367188 L 200.664062 148.015625 L 197.707031 149.667969 L 194.753906 151.316406 L 191.800781 152.96875 L 185.894531 156.265625 L 184.242188 153.3125 L 182.59375 150.355469 L 180.941406 147.398438 L 177.988281 149.050781 L 175.035156 150.699219 L 172.082031 152.351562 L 169.128906 154 L 166.171875 155.652344 L 160.265625 158.949219 Z M 187.195312 151.660156 L 190.152344 150.011719 L 193.105469 148.359375 L 199.011719 145.0625 L 195.707031 139.148438 L 192.753906 140.800781 L 189.800781 142.449219 L 186.847656 144.101562 L 183.894531 145.75 L 185.546875 148.707031 Z M 160.707031 201.363281 L 157.753906 203.011719 L 159.40625 205.96875 L 161.058594 208.921875 L 164.011719 207.273438 L 162.359375 204.316406 Z M 242.011719 124.917969 L 240.359375 121.960938 L 237.40625 123.609375 L 239.058594 126.566406 Z M 245.316406 130.828125 L 248.269531 129.175781 L 246.617188 126.222656 L 244.964844 123.265625 L 242.011719 124.917969 L 243.664062 127.871094 Z M 229.847656 123.953125 L 232.804688 122.304688 L 231.152344 119.347656 L 228.199219 121 L 225.246094 122.648438 L 226.894531 125.605469 Z M 154.453125 197.101562 L 152.800781 194.144531 L 151.148438 191.191406 L 149.5 188.234375 L 147.847656 185.277344 L 144.894531 186.929688 L 146.542969 189.882812 L 149.847656 195.796875 L 151.5 198.75 L 153.148438 201.707031 L 154.800781 204.664062 L 157.753906 203.011719 L 156.101562 200.054688 Z M 149.148438 180.671875 L 147.5 177.71875 L 144.546875 179.367188 L 146.195312 182.324219 L 147.847656 185.277344 L 150.800781 183.628906 Z M 148.800781 173.113281 L 145.847656 174.761719 L 147.5 177.71875 L 150.453125 176.066406 Z M 150.101562 168.507812 L 147.148438 170.15625 L 148.800781 173.113281 L 151.753906 171.460938 Z M 156.011719 165.207031 L 154.359375 162.25 L 151.40625 163.902344 L 148.453125 165.550781 L 150.101562 168.507812 L 153.058594 166.855469 Z M 247.058594 168.632812 L 244.105469 170.28125 L 241.152344 171.933594 L 238.199219 173.582031 L 235.246094 175.234375 L 232.289062 176.882812 L 233.941406 179.839844 L 236.894531 178.1875 L 242.800781 174.890625 L 245.757812 173.238281 L 248.710938 171.589844 L 251.664062 169.9375 L 254.617188 168.289062 L 252.964844 165.332031 L 250.011719 166.984375 Z M 219.082031 153.238281 L 216.128906 154.890625 L 217.777344 157.84375 L 219.429688 160.800781 L 222.382812 159.148438 L 220.734375 156.195312 Z M 232.894531 157.15625 L 229.941406 158.804688 L 231.59375 161.761719 L 233.246094 164.714844 L 236.199219 163.066406 L 234.546875 160.109375 Z M 225.335938 157.5 L 222.382812 159.148438 L 224.035156 162.105469 L 226.988281 160.457031 L 229.941406 158.804688 L 228.289062 155.851562 Z M 224.988281 149.9375 L 223.335938 146.984375 L 217.429688 150.28125 L 219.082031 153.238281 L 222.035156 151.589844 Z M 228.894531 136.121094 L 227.246094 133.167969 L 224.289062 134.816406 L 221.335938 136.464844 L 222.988281 139.421875 L 225.941406 137.773438 Z M 224.640625 142.378906 L 222.988281 139.421875 L 220.035156 141.070312 L 221.6875 144.027344 L 223.335938 146.984375 L 226.289062 145.332031 Z M 251.316406 162.378906 L 252.964844 165.332031 L 255.917969 163.683594 L 258.871094 162.03125 L 257.222656 159.078125 L 254.269531 160.726562 Z M 236.199219 163.066406 L 237.847656 166.023438 L 240.800781 164.371094 L 243.757812 162.722656 L 242.105469 159.765625 L 239.152344 161.417969 Z M 248.269531 129.175781 L 249.917969 132.132812 L 251.570312 135.089844 L 253.222656 138.042969 L 254.871094 141 L 256.523438 143.953125 L 258.175781 146.910156 L 261.128906 145.261719 L 259.476562 142.304688 L 257.828125 139.347656 L 256.175781 136.394531 L 254.523438 133.4375 L 252.871094 130.484375 L 251.222656 127.527344 Z M 240.105469 149.25 L 241.757812 152.207031 L 244.710938 150.554688 L 247.664062 148.90625 L 246.011719 145.949219 L 243.058594 147.597656 Z M 240.453125 156.8125 L 242.105469 159.765625 L 245.058594 158.117188 L 243.40625 155.160156 L 241.757812 152.207031 L 238.800781 153.855469 Z M 244.359375 142.992188 L 246.011719 145.949219 L 248.964844 144.300781 L 247.316406 141.34375 L 245.664062 138.386719 L 242.710938 140.039062 Z M 256.871094 151.515625 L 258.523438 154.472656 L 261.476562 152.820312 L 259.828125 149.867188 L 258.175781 146.910156 L 255.222656 148.5625 Z M 239.757812 141.6875 L 242.710938 140.039062 L 241.058594 137.082031 L 238.105469 138.734375 L 235.152344 140.382812 L 236.800781 143.339844 Z M 196.40625 154.273438 L 193.453125 155.921875 L 190.5 157.574219 L 192.152344 160.527344 L 195.105469 158.878906 L 198.058594 157.226562 L 203.964844 153.929688 L 202.3125 150.972656 L 199.359375 152.621094 Z M 232.199219 142.03125 L 235.152344 140.382812 L 233.5 137.425781 L 231.847656 134.472656 L 228.894531 136.121094 L 230.546875 139.078125 Z M 257.222656 159.078125 L 260.175781 157.425781 L 258.523438 154.472656 L 255.570312 156.121094 Z M 180.683594 174.6875 L 183.640625 173.039062 L 185.289062 175.996094 L 186.941406 178.949219 L 188.59375 181.90625 L 185.640625 183.554688 L 182.683594 185.207031 L 184.335938 188.160156 L 185.988281 191.117188 L 183.035156 192.765625 L 180.082031 194.417969 L 177.125 196.066406 L 175.476562 193.113281 L 173.824219 190.15625 L 170.871094 191.804688 L 167.917969 193.457031 L 166.265625 190.5 L 164.613281 187.546875 L 162.964844 184.589844 L 165.917969 182.941406 L 168.871094 181.289062 L 167.21875 178.332031 L 165.570312 175.378906 L 168.523438 173.726562 L 174.429688 170.429688 L 176.082031 173.382812 L 177.730469 176.339844 Z M 182.335938 177.644531 L 179.382812 179.296875 L 176.429688 180.945312 L 174.777344 177.988281 L 173.125 175.035156 L 170.171875 176.683594 L 171.824219 179.640625 L 173.476562 182.59375 L 170.523438 184.246094 L 167.570312 185.894531 L 169.21875 188.851562 L 172.171875 187.199219 L 175.125 185.550781 L 176.777344 188.507812 L 178.429688 191.460938 L 181.382812 189.8125 L 179.730469 186.855469 L 178.082031 183.902344 L 181.035156 182.25 L 183.988281 180.601562 Z M 233.847656 144.988281 L 232.199219 142.03125 L 229.246094 143.683594 L 226.289062 145.332031 L 227.941406 148.289062 L 230.894531 146.636719 Z M 235.5 147.945312 L 237.152344 150.898438 L 240.105469 149.25 L 238.453125 146.292969 L 236.800781 143.339844 L 233.847656 144.988281 Z M 231.246094 154.199219 L 232.894531 157.15625 L 235.847656 155.503906 L 238.800781 153.855469 L 237.152344 150.898438 L 234.199219 152.550781 Z M 227.941406 148.289062 L 224.988281 149.9375 L 226.640625 152.894531 L 228.289062 155.851562 L 231.246094 154.199219 L 229.59375 151.246094 Z M 138.800781 120.527344 L 140.453125 123.484375 L 143.40625 121.832031 L 141.753906 118.878906 Z M 196.570312 92.132812 L 193.617188 93.78125 L 190.664062 95.433594 L 187.710938 97.082031 L 184.753906 98.734375 L 178.847656 102.03125 L 175.894531 103.683594 L 172.941406 105.332031 L 169.988281 106.984375 L 167.035156 108.632812 L 164.082031 110.285156 L 161.128906 111.933594 L 158.171875 113.582031 L 155.21875 115.234375 L 152.265625 116.882812 L 149.3125 118.535156 L 143.40625 121.832031 L 145.058594 124.789062 L 148.011719 123.140625 L 150.964844 121.488281 L 153.917969 119.839844 L 156.871094 118.1875 L 162.777344 114.890625 L 165.730469 113.238281 L 168.683594 111.589844 L 171.640625 109.9375 L 177.546875 106.640625 L 180.5 104.988281 L 183.453125 103.339844 L 186.40625 101.6875 L 189.359375 100.039062 L 192.3125 98.386719 L 195.265625 96.738281 L 198.222656 95.089844 L 201.175781 93.4375 L 199.523438 90.484375 Z M 171.894531 82.648438 L 168.941406 84.300781 L 170.59375 87.253906 L 173.546875 85.605469 Z M 204.128906 91.789062 L 201.175781 93.4375 L 202.824219 96.394531 L 205.777344 94.742188 L 208.734375 93.09375 L 207.082031 90.136719 Z M 136.800781 110.011719 L 133.847656 111.660156 L 135.5 114.617188 L 138.453125 112.96875 Z M 142.707031 106.710938 L 145.660156 105.0625 L 148.617188 103.410156 L 151.570312 101.761719 L 154.523438 100.109375 L 160.429688 96.8125 L 163.382812 95.160156 L 166.335938 93.511719 L 169.289062 91.859375 L 172.242188 90.210938 L 170.59375 87.253906 L 167.640625 88.90625 L 164.683594 90.554688 L 161.730469 92.207031 L 155.824219 95.503906 L 152.871094 97.15625 L 149.917969 98.804688 L 146.964844 100.457031 L 141.058594 103.753906 L 138.105469 105.40625 L 135.148438 107.054688 L 136.800781 110.011719 L 139.753906 108.359375 Z M 135.5 114.617188 L 132.546875 116.265625 L 134.195312 119.222656 L 135.847656 122.179688 L 138.800781 120.527344 L 137.148438 117.574219 Z M 193.710938 128.632812 L 196.664062 126.984375 L 199.617188 125.332031 L 202.570312 123.683594 L 205.523438 122.03125 L 211.429688 118.734375 L 214.382812 117.082031 L 212.734375 114.128906 L 209.777344 115.777344 L 206.824219 117.425781 L 203.871094 119.078125 L 200.917969 120.726562 L 197.964844 122.378906 L 192.058594 125.675781 L 189.105469 127.328125 L 186.152344 128.976562 L 187.800781 131.933594 L 190.753906 130.285156 Z M 208.734375 93.09375 L 210.382812 96.050781 L 213.335938 94.398438 L 211.6875 91.445312 Z M 187.800781 131.933594 L 184.847656 133.582031 L 186.5 136.539062 L 189.453125 134.890625 Z M 218.640625 110.828125 L 216.988281 107.871094 L 214.035156 109.523438 L 211.082031 111.171875 L 212.734375 114.128906 L 215.6875 112.476562 Z M 219.59375 98.660156 L 217.941406 95.703125 L 216.292969 92.75 L 213.335938 94.398438 L 214.988281 97.355469 L 216.640625 100.308594 L 218.292969 103.265625 L 221.246094 101.617188 Z M 218.292969 103.265625 L 215.335938 104.917969 L 216.988281 107.871094 L 219.941406 106.222656 Z M 218.292969 103.265625 " fill-opacity="1" fill-rule="nonzero"/></g></g></g></g><g clip-path="url(#c7262e38ec)"><g clip-path="url(#7b776b1d6b)"><g clip-path="url(#09abf3d430)"><g clip-path="url(#85648dd645)"><path fill="#000000" d="M 244.710938 150.554688 L 246.359375 153.511719 L 243.40625 155.160156 L 241.757812 152.207031 Z M 245.40625 165.675781 L 242.453125 167.328125 L 240.800781 164.371094 L 237.847656 166.023438 L 236.199219 163.066406 L 233.246094 164.714844 L 231.59375 161.761719 L 228.640625 163.410156 L 230.289062 166.367188 L 231.941406 169.320312 L 234.894531 167.671875 L 236.546875 170.628906 L 233.59375 172.277344 L 230.640625 173.929688 L 232.289062 176.882812 L 235.246094 175.234375 L 238.199219 173.582031 L 241.152344 171.933594 L 244.105469 170.28125 L 250.011719 166.984375 L 252.964844 165.332031 L 251.316406 162.378906 L 248.359375 164.027344 Z M 237.152344 150.898438 L 238.800781 153.855469 L 241.757812 152.207031 L 240.105469 149.25 Z M 232.546875 149.59375 L 234.199219 152.550781 L 237.152344 150.898438 L 235.5 147.945312 Z M 227.941406 148.289062 L 229.59375 151.246094 L 232.546875 149.59375 L 230.894531 146.636719 Z M 223.335938 146.984375 L 224.988281 149.9375 L 227.941406 148.289062 L 226.289062 145.332031 Z M 218.734375 145.675781 L 220.382812 148.632812 L 223.335938 146.984375 L 221.6875 144.027344 Z M 224.035156 162.105469 L 222.382812 159.148438 L 219.429688 160.800781 L 217.777344 157.84375 L 214.824219 159.496094 L 216.476562 162.449219 L 218.128906 165.40625 L 221.082031 163.753906 L 222.734375 166.710938 L 225.6875 165.0625 L 228.640625 163.410156 L 226.988281 160.457031 Z M 226.035156 172.621094 L 223.082031 174.273438 L 224.734375 177.226562 L 230.640625 173.929688 L 228.988281 170.972656 Z M 219.777344 168.359375 L 216.824219 170.011719 L 218.476562 172.964844 L 220.128906 175.921875 L 223.082031 174.273438 Z M 213.523438 164.101562 L 210.570312 165.75 L 212.21875 168.707031 L 213.871094 171.660156 L 216.824219 170.011719 L 215.175781 167.054688 Z M 200.664062 148.015625 L 197.707031 149.667969 L 194.753906 151.316406 L 191.800781 152.96875 L 185.894531 156.265625 L 184.242188 153.3125 L 182.59375 150.355469 L 179.640625 152.003906 L 181.289062 154.960938 L 182.941406 157.917969 L 184.59375 160.871094 L 190.5 157.574219 L 193.453125 155.921875 L 196.40625 154.273438 L 199.359375 152.621094 L 202.3125 150.972656 Z M 195.105469 158.878906 L 192.152344 160.527344 L 189.195312 162.179688 L 190.847656 165.132812 L 193.800781 163.484375 L 196.753906 161.832031 L 199.707031 160.183594 L 202.664062 158.535156 L 201.011719 155.578125 L 198.058594 157.226562 Z M 189.289062 197.027344 L 186.335938 198.679688 L 183.382812 200.328125 L 180.429688 201.980469 L 174.523438 205.277344 L 176.171875 208.234375 L 179.125 206.585938 L 182.082031 204.933594 L 185.035156 203.285156 L 187.988281 201.632812 L 190.941406 199.984375 L 193.894531 198.332031 L 196.847656 196.683594 L 195.195312 193.726562 L 192.242188 195.378906 Z M 175.476562 193.113281 L 173.824219 190.15625 L 170.871094 191.804688 L 167.917969 193.457031 L 166.265625 190.5 L 164.613281 187.546875 L 161.660156 189.195312 L 163.3125 192.152344 L 164.964844 195.105469 L 166.613281 198.0625 L 169.570312 196.410156 L 172.523438 194.761719 L 174.171875 197.71875 L 175.824219 200.671875 L 178.777344 199.023438 L 181.730469 197.371094 L 184.683594 195.722656 L 183.035156 192.765625 L 180.082031 194.417969 L 177.125 196.066406 Z M 165.917969 182.941406 L 168.871094 181.289062 L 167.21875 178.332031 L 164.265625 179.984375 Z M 157.660156 168.160156 L 156.011719 165.207031 L 153.058594 166.855469 L 150.101562 168.507812 L 151.753906 171.460938 L 154.707031 169.8125 Z M 169.917969 203.972656 L 166.964844 205.625 L 168.613281 208.578125 L 171.570312 206.929688 L 174.523438 205.277344 L 172.871094 202.324219 Z M 151.753906 171.460938 L 148.800781 173.113281 L 150.453125 176.066406 L 153.40625 174.417969 Z M 163.660156 199.710938 L 160.707031 201.363281 L 162.359375 204.316406 L 164.011719 207.273438 L 166.964844 205.625 Z M 152.101562 179.023438 L 150.453125 176.066406 L 147.5 177.71875 L 149.148438 180.671875 L 150.800781 183.628906 L 153.753906 181.980469 Z M 157.40625 195.449219 L 155.753906 192.496094 L 154.101562 189.539062 L 152.453125 186.585938 L 150.800781 183.628906 L 147.847656 185.277344 L 149.5 188.234375 L 151.148438 191.191406 L 152.800781 194.144531 L 154.453125 197.101562 L 156.101562 200.054688 L 157.753906 203.011719 L 160.707031 201.363281 L 159.058594 198.40625 Z M 157.40625 195.449219 " fill-opacity="0.3" fill-rule="nonzero"/></g></g></g></g><g clip-path="url(#512856386a)"><g clip-path="url(#481bd3a7f2)"><g clip-path="url(#1acbf61d5a)"><g clip-path="url(#7fb5fe92af)"><path fill="#ffffff" d="M 248.269531 129.175781 L 249.917969 132.132812 L 251.570312 135.089844 L 253.222656 138.042969 L 254.871094 141 L 256.523438 143.953125 L 258.175781 146.910156 L 255.222656 148.5625 L 251.917969 142.648438 L 250.269531 139.695312 L 246.964844 133.78125 L 245.316406 130.828125 Z M 253.917969 153.167969 L 255.570312 156.121094 L 258.523438 154.472656 L 256.871094 151.515625 L 255.222656 148.5625 L 252.269531 150.210938 Z M 242.011719 124.917969 L 239.058594 126.566406 L 240.710938 129.523438 L 242.359375 132.476562 L 245.316406 130.828125 L 243.664062 127.871094 Z M 234.453125 125.261719 L 236.105469 128.214844 L 239.058594 126.566406 L 237.40625 123.609375 Z M 249.664062 159.421875 L 251.316406 162.378906 L 254.269531 160.726562 L 257.222656 159.078125 L 255.570312 156.121094 L 252.617188 157.773438 Z M 229.847656 123.953125 L 226.894531 125.605469 L 228.546875 128.5625 L 231.5 126.910156 L 234.453125 125.261719 L 232.804688 122.304688 Z M 222.289062 124.300781 L 219.335938 125.949219 L 216.382812 127.601562 L 210.476562 130.898438 L 207.523438 132.550781 L 204.570312 134.199219 L 201.617188 135.851562 L 198.664062 137.5 L 200.3125 140.457031 L 203.265625 138.804688 L 206.222656 137.15625 L 209.175781 135.503906 L 215.082031 132.207031 L 218.035156 130.554688 L 220.988281 128.90625 L 223.941406 127.253906 L 226.894531 125.605469 L 225.246094 122.648438 Z M 203.011719 166.09375 L 200.058594 167.746094 L 197.105469 169.394531 L 198.753906 172.351562 L 201.707031 170.699219 L 204.664062 169.050781 L 207.617188 167.398438 L 210.570312 165.75 L 208.917969 162.792969 L 205.964844 164.445312 Z M 197.453125 176.957031 L 199.105469 179.910156 L 202.058594 178.261719 L 200.40625 175.304688 L 198.753906 172.351562 L 195.800781 174 Z M 197.800781 184.515625 L 199.453125 187.472656 L 202.40625 185.824219 L 200.753906 182.867188 L 199.105469 179.910156 L 196.152344 181.5625 Z M 193.546875 190.773438 L 195.195312 193.726562 L 198.152344 192.078125 L 201.105469 190.429688 L 199.453125 187.472656 L 196.5 189.121094 Z M 176.683594 153.65625 L 179.640625 152.003906 L 182.59375 150.355469 L 180.941406 147.398438 L 177.988281 149.050781 L 175.035156 150.699219 L 172.082031 152.351562 L 169.128906 154 L 166.171875 155.652344 L 160.265625 158.949219 L 157.3125 160.601562 L 154.359375 162.25 L 156.011719 165.207031 L 158.964844 163.554688 L 164.871094 160.257812 L 167.824219 158.605469 L 170.777344 156.957031 L 173.730469 155.304688 Z M 176.683594 153.65625 " fill-opacity="0.5" fill-rule="nonzero"/></g></g></g></g><g clip-path="url(#b745f965b3)"><g clip-path="url(#79509ce52e)"><g clip-path="url(#15022e978c)"><g clip-path="url(#642143e918)"><path fill="#ffffff" d="M 195.710938 139.148438 L 197.359375 142.105469 L 199.011719 145.0625 L 196.058594 146.710938 L 194.40625 143.753906 L 191.453125 145.40625 L 188.5 147.054688 L 185.546875 148.707031 L 183.894531 145.75 L 186.847656 144.101562 L 189.800781 142.449219 L 192.753906 140.800781 Z M 195.710938 139.148438 " fill-opacity="0.5" fill-rule="nonzero"/></g></g></g></g><g clip-path="url(#52a5fe83d7)"><g clip-path="url(#67c2c00762)"><g clip-path="url(#8050d1a716)"><g clip-path="url(#a86cf7ac31)"><path fill="#ffffff" d="M 242.710938 140.039062 L 244.359375 142.992188 L 246.011719 145.949219 L 243.058594 147.597656 L 241.40625 144.644531 L 239.757812 141.6875 Z M 237.5 158.460938 L 239.152344 161.417969 L 242.105469 159.765625 L 240.453125 156.8125 L 238.800781 153.855469 L 235.847656 155.503906 Z M 227.59375 140.726562 L 229.246094 143.683594 L 232.199219 142.03125 L 230.546875 139.078125 L 228.894531 136.121094 L 225.941406 137.773438 Z M 223.6875 154.542969 L 225.335938 157.5 L 228.289062 155.851562 L 226.640625 152.894531 L 224.988281 149.9375 L 222.035156 151.589844 Z M 179.382812 179.296875 L 181.035156 182.25 L 183.988281 180.601562 L 182.335938 177.644531 Z M 179.382812 179.296875 " fill-opacity="0.9" fill-rule="nonzero"/></g></g></g></g></svg>